<?xml version="1.0" standalone="no"?><!-- Generator: Gravit.io --><svg xmlns="http://www.w3.org/2000/svg" xmlns:xlink="http://www.w3.org/1999/xlink" style="isolation:isolate" viewBox="0 0 600 100" width="600" height="100"><defs><clipPath id="_clipPath_ouk9Nz0jvX3UoZc6NkMVp9X2Toh0LdBf"><rect width="600" height="100"/></clipPath></defs><g clip-path="url(#_clipPath_ouk9Nz0jvX3UoZc6NkMVp9X2Toh0LdBf)"><path d=" M 300 100 L 200 100 L 200 0 L 300 0 L 300 100 Z " fill="rgb(204,69,65)"/><path d=" M 248.608 22.037 C 249.167 22.373 249.792 22.863 250.488 23.509 C 251.156 24.182 251.81 25.013 252.451 25.992 C 253.065 26.918 253.608 28.009 254.084 29.274 C 254.474 30.534 254.668 32.008 254.668 33.691 C 254.617 36.776 253.916 39.244 252.565 41.097 C 251.906 41.994 251.205 42.821 250.465 43.579 C 249.644 44.333 248.773 45.107 247.849 45.892 C 247.319 46.424 246.832 47.028 246.383 47.702 C 245.855 48.403 245.59 49.215 245.59 50.14 C 245.59 51.043 245.861 51.784 246.403 52.372 C 246.863 52.934 247.311 53.425 247.746 53.845 L 250.757 56.243 C 252.627 57.734 254.268 59.368 255.677 61.164 C 257.005 62.989 257.696 65.372 257.755 68.315 C 257.755 72.495 255.854 76.196 252.057 79.425 C 248.124 82.764 242.439 84.487 235.014 84.6 C 228.798 84.544 224.158 83.255 221.092 80.739 C 218.002 78.385 216.452 75.572 216.452 72.297 C 216.452 70.703 216.953 68.921 217.965 66.962 C 218.938 65.004 220.707 63.282 223.268 61.798 C 226.139 60.206 229.158 59.138 232.322 58.607 C 235.456 58.161 238.056 57.907 240.127 57.851 C 239.487 57.032 238.917 56.159 238.416 55.228 C 237.832 54.326 237.542 53.239 237.542 51.973 C 237.542 51.212 237.652 50.573 237.873 50.068 C 238.068 49.53 238.251 49.041 238.416 48.588 C 237.409 48.699 236.456 48.756 235.566 48.756 C 230.84 48.699 227.241 47.254 224.763 44.423 C 222.168 41.783 220.87 38.713 220.87 35.209 C 220.87 30.971 222.706 27.132 226.383 23.68 C 228.904 21.663 231.526 20.347 234.244 19.726 C 236.937 19.193 239.46 18.927 241.813 18.927 L 259.559 18.927 L 254.078 22.037 L 248.608 22.037 Z  M 252.034 71.686 C 252.034 69.496 251.3 67.591 249.832 65.965 C 248.277 64.422 245.848 62.529 242.542 60.282 C 241.975 60.225 241.312 60.199 240.549 60.199 C 240.098 60.145 238.938 60.199 237.074 60.366 C 235.239 60.62 233.358 61.025 231.435 61.587 C 230.984 61.756 230.35 62.009 229.532 62.346 C 228.712 62.71 227.879 63.23 227.029 63.903 C 226.209 64.604 225.517 65.473 224.954 66.512 C 224.301 67.607 223.98 68.926 223.98 70.468 C 223.98 73.498 225.388 75.995 228.214 77.958 C 230.901 79.921 234.571 80.931 239.234 80.989 C 243.416 80.931 246.611 80.033 248.811 78.294 C 250.961 76.581 252.034 74.381 252.034 71.686 Z  M 239.663 46.404 C 241.999 46.319 243.945 45.502 245.502 43.955 C 246.255 42.86 246.737 41.736 246.951 40.583 C 247.079 39.429 247.145 38.463 247.145 37.674 C 247.145 34.275 246.25 30.844 244.461 27.389 C 243.62 25.732 242.515 24.381 241.146 23.342 C 239.746 22.362 238.138 21.84 236.322 21.784 C 233.916 21.84 231.918 22.782 230.323 24.609 C 228.978 26.52 228.335 28.656 228.396 31.017 C 228.396 34.136 229.332 37.379 231.211 40.754 C 232.122 42.327 233.292 43.661 234.733 44.757 C 236.17 45.856 237.813 46.404 239.663 46.404 Z " fill="rgb(254,254,254)"/><path d=" M 283.6 28.347 L 274.289 28.347 L 274.289 19.295 L 269.778 19.295 L 269.778 28.347 L 260.468 28.347 L 260.468 32.733 L 269.778 32.733 L 269.778 41.781 L 274.289 41.781 L 274.289 32.733 L 283.6 32.733 L 283.6 28.347 Z " fill="rgb(254,254,254)"/><path d=" M 565.956 47.664 C 566.066 47.664 566.155 47.578 566.172 47.45 L 566.644 44.45 L 566.172 41.395 C 566.155 41.271 566.066 41.181 565.956 41.181 C 565.841 41.181 565.752 41.271 565.736 41.397 L 565.341 44.45 L 565.736 47.449 C 565.752 47.576 565.841 47.664 565.956 47.664 Z " fill="rgb(254,254,254)"/><path d=" M 400 100 L 300 100 L 300 0 L 400 0 L 400 100 Z " fill="rgb(203,54,58)"/><path d=" M 349.588 17.009 C 331.91 17.009 317.573 31.019 317.573 48.305 C 317.573 61.119 325.455 72.129 336.738 76.968 C 336.647 74.78 336.721 72.157 337.293 69.783 C 337.911 67.239 341.414 52.726 341.414 52.726 C 341.414 52.726 340.389 50.731 340.389 47.777 C 340.389 43.143 343.143 39.678 346.567 39.678 C 349.477 39.678 350.884 41.814 350.884 44.374 C 350.884 47.235 349.016 51.516 348.058 55.479 C 347.255 58.799 349.761 61.506 353.105 61.506 C 359.173 61.506 363.257 53.894 363.257 44.868 C 363.257 38.012 358.533 32.879 349.938 32.879 C 340.228 32.879 334.177 39.956 334.177 47.862 C 334.177 50.591 335.001 52.513 336.289 54.002 C 336.882 54.686 336.964 54.959 336.746 55.744 C 336.598 56.324 336.244 57.707 336.096 58.255 C 335.882 59.052 335.227 59.333 334.494 59.04 C 330.02 57.257 327.938 52.469 327.938 47.086 C 327.938 38.197 335.605 27.535 350.819 27.535 C 363.039 27.535 371.088 36.181 371.088 45.464 C 371.088 57.74 364.102 66.911 353.811 66.911 C 350.353 66.911 347.102 65.083 345.991 63.012 C 345.991 63.012 344.13 70.221 343.74 71.614 C 343.06 74.024 341.731 76.438 340.516 78.318 C 343.393 79.146 346.436 79.6 349.588 79.6 C 367.267 79.6 381.6 65.59 381.6 48.305 C 381.6 31.019 367.267 17.009 349.588 17.009 Z " fill="rgb(254,254,254)"/><path d=" M 100 100 L 0 100 L 0 0 L 100 0 L 100 100 Z " fill="rgb(73,98,156)"/><path d=" M 68.714 57.862 L 70.988 42.555 L 53.529 42.555 L 53.529 32.783 C 53.529 28.351 54.953 25.331 62.272 25.331 L 71.6 25.326 L 71.6 11.637 C 69.989 11.45 64.452 11.033 57.999 11.033 C 44.537 11.033 35.327 18.168 35.327 31.268 L 35.327 42.555 L 20.101 42.555 L 20.101 57.862 L 35.327 57.862 L 35.327 97.136 L 53.529 97.136 L 53.529 57.862 L 68.714 57.862 Z " fill="rgb(254,254,254)"/><path d=" M 500 100 L 400 100 L 400 0 L 500 0 L 500 100 Z " fill="rgb(42,128,183)"/><path d=" M 423.542 36.123 L 435.787 36.123 L 435.787 77.6 L 423.542 77.6 L 423.542 36.123 Z  M 429.668 15.504 C 433.583 15.504 436.757 18.856 436.757 22.977 C 436.757 27.102 433.583 30.453 429.668 30.453 C 425.739 30.453 422.571 27.102 422.571 22.977 C 422.571 18.856 425.739 15.504 429.668 15.504 Z " fill="rgb(254,254,254)"/><path d=" M 443.463 36.123 L 455.19 36.123 L 455.19 41.792 L 455.356 41.792 C 456.987 38.529 460.98 35.092 466.932 35.092 C 479.31 35.092 481.6 43.679 481.6 54.849 L 481.6 77.6 L 469.377 77.6 L 469.377 57.434 C 469.377 52.62 469.288 46.432 463.019 46.432 C 456.652 46.432 455.682 51.671 455.682 57.079 L 455.682 77.6 L 443.463 77.6 L 443.463 36.123 Z " fill="rgb(254,254,254)"/><path d=" M 200 100 L 100 100 L 100 0 L 200 0 L 200 100 Z " fill="rgb(59,170,224)"/><path d=" M 178.6 29.72 C 176.247 30.765 173.718 31.472 171.067 31.789 C 173.774 30.162 175.857 27.589 176.834 24.52 C 174.303 26.026 171.496 27.121 168.508 27.71 C 166.113 25.155 162.703 23.56 158.931 23.56 C 151.687 23.56 145.814 29.443 145.814 36.698 C 145.814 37.73 145.93 38.73 146.153 39.691 C 135.253 39.145 125.589 33.915 119.118 25.963 C 117.99 27.907 117.343 30.162 117.343 32.57 C 117.343 37.127 119.657 41.151 123.176 43.505 C 121.027 43.438 119.005 42.844 117.236 41.861 L 117.236 42.027 C 117.236 48.391 121.758 53.702 127.756 54.91 C 126.657 55.208 125.495 55.373 124.3 55.373 C 123.457 55.373 122.633 55.288 121.834 55.134 C 123.502 60.354 128.346 64.151 134.084 64.26 C 129.598 67.783 123.943 69.884 117.793 69.884 C 116.736 69.884 115.693 69.819 114.667 69.7 C 120.472 73.424 127.366 75.6 134.777 75.6 C 158.901 75.6 172.094 55.584 172.094 38.221 C 172.094 37.653 172.079 37.086 172.058 36.519 C 174.616 34.67 176.838 32.355 178.6 29.72 Z " fill="rgb(254,254,254)"/><clipPath id="_clipPath_EoHGzWH4pfiRQ3HopGWhhJgqGEoQwg4a"><path d=" M 0 0 L 0 569.668 L 626.2 569.668 L 626.2 0 L 0 0 Z " fill="rgb(255,255,255)"/></clipPath><g clip-path="url(#_clipPath_EoHGzWH4pfiRQ3HopGWhhJgqGEoQwg4a)"><path d=" M 600 100 L 500 100 L 500 0 L 600 0 L 600 100 Z " fill="rgb(105,182,81)"/></g><path d=" M 563.324 51.629 C 562.508 51.214 558.502 49.204 557.751 48.919 C 557.001 48.636 556.452 48.489 555.867 49.243 C 555.282 49.994 553.62 51.677 553.118 52.176 C 552.613 52.675 552.125 52.722 551.309 52.304 C 550.496 51.89 547.853 50.982 544.787 48.242 C 542.402 46.109 540.837 43.525 540.383 42.736 C 539.929 41.945 540.38 41.543 540.812 41.173 C 541.199 40.84 541.679 40.299 542.111 39.864 C 542.544 39.428 542.697 39.111 542.995 38.606 C 543.29 38.101 543.172 37.645 542.979 37.251 C 542.786 36.858 541.279 33.001 540.65 31.432 C 540.02 29.863 539.319 30.096 538.834 30.078 C 538.35 30.062 537.799 29.978 537.246 29.96 C 536.691 29.94 535.783 30.101 534.991 30.848 C 534.199 31.593 531.979 33.386 531.827 37.185 C 531.674 40.982 534.5 44.757 534.895 45.285 C 535.29 45.816 540.293 54.049 548.607 57.436 C 556.924 60.821 556.967 59.789 558.495 59.713 C 560.021 59.637 563.481 58.016 564.246 56.238 C 565.011 54.46 565.072 52.915 564.878 52.585 C 564.683 52.256 564.138 52.043 563.324 51.629 Z  M 548.072 69.934 C 542.573 69.934 537.451 68.399 533.175 65.771 L 522.769 68.868 L 526.152 59.519 C 522.91 55.367 520.996 50.268 520.996 44.757 C 520.996 30.873 533.142 19.579 548.072 19.579 C 563.004 19.579 575.15 30.873 575.15 44.757 C 575.15 58.64 563.004 69.934 548.072 69.934 Z  M 548.072 14.514 C 530.108 14.514 515.546 28.053 515.546 44.757 C 515.546 50.471 517.252 55.815 520.213 60.374 L 514.343 76.6 L 532.351 71.238 C 537.011 73.634 542.371 75.001 548.072 75.001 C 566.039 75.001 580.6 61.459 580.6 44.757 C 580.6 28.053 566.039 14.514 548.072 14.514 Z " fill-rule="evenodd" fill="rgb(254,254,254)"/></g></svg>